REM DIRINDEX 1\6,1\2\7,1\2\8,1\2\9,1\3\10,1\3\11,1\4\12,1\4\13,1\4\14,1\5\15,1\5\16,1\5\17
REM DIRNAME folder01,folder02,folder03,folder04,folder05,folder06,folder07,folder08,folder09,folder10,folder11,folder12,folder13,folder14,folder15,folder16,folder17
TITLE ""
FILE "P2Q_t2_0668-0685.mp3" MP3
  TRACK 01 AUDIO
    TITLE "7:cjc040_5835"
    INDEX 01 00:00:00
  TRACK 02 AUDIO
    TITLE "0:"
    INDEX 01 00:01:07
  TRACK 03 AUDIO
    TITLE "8:cjc040_5836"
    INDEX 01 00:01:60
  TRACK 04 AUDIO
    TITLE "0:"
    INDEX 01 00:04:50
  TRACK 05 AUDIO
    TITLE "9:cjc040_5837"
    INDEX 01 00:05:28
  TRACK 06 AUDIO
    TITLE "0:"
    INDEX 01 00:06:47
  TRACK 07 AUDIO
    TITLE "7:cjc040_5838"
    INDEX 01 00:08:28
  TRACK 08 AUDIO
    TITLE "0:"
    INDEX 01 00:09:53
  TRACK 09 AUDIO
    TITLE "8:cjc040_5839"
    INDEX 01 00:10:33
  TRACK 10 AUDIO
    TITLE "0:"
    INDEX 01 00:11:56
  TRACK 11 AUDIO
    TITLE "9:cjc040_5840"
    INDEX 01 00:12:38
  TRACK 12 AUDIO
    TITLE "0:"
    INDEX 01 00:13:67
  TRACK 13 AUDIO
    TITLE "7:cjc040_5841"
    INDEX 01 00:15:48
  TRACK 14 AUDIO
    TITLE "0:"
    INDEX 01 00:16:49
  TRACK 15 AUDIO
    TITLE "8:cjc040_5842"
    INDEX 01 00:17:35
  TRACK 16 AUDIO
    TITLE "0:"
    INDEX 01 00:18:58
  TRACK 17 AUDIO
    TITLE "9:cjc040_5843"
    INDEX 01 00:19:34
  TRACK 18 AUDIO
    TITLE "0:"
    INDEX 01 00:20:41
  TRACK 19 AUDIO
    TITLE "7:cjc040_5844"
    INDEX 01 00:22:32
  TRACK 20 AUDIO
    TITLE "0:"
    INDEX 01 00:23:34
  TRACK 21 AUDIO
    TITLE "8:cjc040_5845"
    INDEX 01 00:24:14
  TRACK 22 AUDIO
    TITLE "0:"
    INDEX 01 00:27:65
  TRACK 23 AUDIO
    TITLE "9:cjc040_5846"
    INDEX 01 00:28:49
  TRACK 24 AUDIO
    TITLE "0:"
    INDEX 01 00:29:50
  TRACK 25 AUDIO
    TITLE "7:cjc040_5847"
    INDEX 01 00:31:35
  TRACK 26 AUDIO
    TITLE "0:"
    INDEX 01 00:32:45
  TRACK 27 AUDIO
    TITLE "8:cjc040_5848"
    INDEX 01 00:33:24
  TRACK 28 AUDIO
    TITLE "0:"
    INDEX 01 00:34:49
  TRACK 29 AUDIO
    TITLE "9:cjc040_5849"
    INDEX 01 00:35:35
  TRACK 30 AUDIO
    TITLE "0:"
    INDEX 01 00:36:46
  TRACK 31 AUDIO
    TITLE "7:cjc040_5850"
    INDEX 01 00:38:31
  TRACK 32 AUDIO
    TITLE "0:"
    INDEX 01 00:39:37
  TRACK 33 AUDIO
    TITLE "8:cjc040_5851"
    INDEX 01 00:40:21
  TRACK 34 AUDIO
    TITLE "0:"
    INDEX 01 00:42:53
  TRACK 35 AUDIO
    TITLE "9:cjc040_5852"
    INDEX 01 00:43:27
  TRACK 36 AUDIO
    TITLE "0:"
    INDEX 01 00:44:40
  TRACK 37 AUDIO
    TITLE "7:cjc040_5853"
    INDEX 01 00:46:23
  TRACK 38 AUDIO
    TITLE "0:"
    INDEX 01 00:47:28
  TRACK 39 AUDIO
    TITLE "8:cjc040_5854"
    INDEX 01 00:48:12
  TRACK 40 AUDIO
    TITLE "0:"
    INDEX 01 00:51:73
  TRACK 41 AUDIO
    TITLE "9:cjc040_5855"
    INDEX 01 00:52:55
  TRACK 42 AUDIO
    TITLE "0:"
    INDEX 01 00:53:58
  TRACK 43 AUDIO
    TITLE "7:cjc040_5856"
    INDEX 01 00:55:36
  TRACK 44 AUDIO
    TITLE "0:"
    INDEX 01 00:56:55
  TRACK 45 AUDIO
    TITLE "8:cjc040_5857"
    INDEX 01 00:57:41
  TRACK 46 AUDIO
    TITLE "0:"
    INDEX 01 00:59:38
  TRACK 47 AUDIO
    TITLE "9:cjc040_5858"
    INDEX 01 01:00:13
  TRACK 48 AUDIO
    TITLE "0:"
    INDEX 01 01:01:34
  TRACK 49 AUDIO
    TITLE "7:cjc040_5859"
    INDEX 01 01:03:18
  TRACK 50 AUDIO
    TITLE "0:"
    INDEX 01 01:04:43
  TRACK 51 AUDIO
    TITLE "8:cjc040_5860"
    INDEX 01 01:05:15
  TRACK 52 AUDIO
    TITLE "0:"
    INDEX 01 01:09:52
  TRACK 53 AUDIO
    TITLE "9:cjc040_5861"
    INDEX 01 01:10:28
  TRACK 54 AUDIO
    TITLE "0:"
    INDEX 01 01:11:51
  TRACK 55 AUDIO
    TITLE "7:cjc040_5862"
    INDEX 01 01:13:32
  TRACK 56 AUDIO
    TITLE "0:"
    INDEX 01 01:14:37
  TRACK 57 AUDIO
    TITLE "8:cjc040_5863"
    INDEX 01 01:15:17
  TRACK 58 AUDIO
    TITLE "0:"
    INDEX 01 01:16:20
  TRACK 59 AUDIO
    TITLE "9:cjc040_5864"
    INDEX 01 01:16:71
  TRACK 60 AUDIO
    TITLE "0:"
    INDEX 01 01:18:11
  TRACK 61 AUDIO
    TITLE "7:cjc040_5865"
    INDEX 01 01:19:66
  TRACK 62 AUDIO
    TITLE "0:"
    INDEX 01 01:20:73
  TRACK 63 AUDIO
    TITLE "8:cjc040_5866"
    INDEX 01 01:21:57
  TRACK 64 AUDIO
    TITLE "0:"
    INDEX 01 01:23:15
  TRACK 65 AUDIO
    TITLE "9:cjc040_5867"
    INDEX 01 01:23:65
  TRACK 66 AUDIO
    TITLE "0:"
    INDEX 01 01:25:02
  TRACK 67 AUDIO
    TITLE "7:cjc040_5868"
    INDEX 01 01:26:56
  TRACK 68 AUDIO
    TITLE "0:"
    INDEX 01 01:28:04
  TRACK 69 AUDIO
    TITLE "8:cjc040_5869"
    INDEX 01 01:28:59
  TRACK 70 AUDIO
    TITLE "0:"
    INDEX 01 01:30:17
  TRACK 71 AUDIO
    TITLE "9:cjc040_5870"
    INDEX 01 01:30:67
  TRACK 72 AUDIO
    TITLE "0:"
    INDEX 01 01:32:17
  TRACK 73 AUDIO
    TITLE "7:cjc040_5871"
    INDEX 01 01:33:74
  TRACK 74 AUDIO
    TITLE "0:"
    INDEX 01 01:35:10
  TRACK 75 AUDIO
    TITLE "8:cjc040_5872"
    INDEX 01 01:35:69
  TRACK 76 AUDIO
    TITLE "0:"
    INDEX 01 01:38:34
  TRACK 77 AUDIO
    TITLE "9:cjc040_5873"
    INDEX 01 01:39:10
  TRACK 78 AUDIO
    TITLE "0:"
    INDEX 01 01:40:25
  TRACK 79 AUDIO
    TITLE "7:cjc040_5874"
    INDEX 01 01:42:10
  TRACK 80 AUDIO
    TITLE "0:"
    INDEX 01 01:43:25
  TRACK 81 AUDIO
    TITLE "8:cjc040_5875"
    INDEX 01 01:44:05
  TRACK 82 AUDIO
    TITLE "0:"
    INDEX 01 01:45:28
  TRACK 83 AUDIO
    TITLE "9:cjc040_5876"
    INDEX 01 01:46:00
  TRACK 84 AUDIO
    TITLE "0:"
    INDEX 01 01:47:17
  TRACK 85 AUDIO
    TITLE "7:cjc040_5877"
    INDEX 01 01:48:73
  TRACK 86 AUDIO
    TITLE "0:"
    INDEX 01 01:50:13
  TRACK 87 AUDIO
    TITLE "8:cjc040_5878"
    INDEX 01 01:50:66
  TRACK 88 AUDIO
    TITLE "0:"
    INDEX 01 01:53:20
  TRACK 89 AUDIO
    TITLE "9:cjc040_5879"
    INDEX 01 01:53:74
  TRACK 90 AUDIO
    TITLE "0:"
    INDEX 01 01:55:16
  TRACK 91 AUDIO
    TITLE "7:cjc040_5880"
    INDEX 01 01:57:02
  TRACK 92 AUDIO
    TITLE "0:"
    INDEX 01 01:58:01
  TRACK 93 AUDIO
    TITLE "8:cjc040_5881"
    INDEX 01 01:58:58
  TRACK 94 AUDIO
    TITLE "0:"
    INDEX 01 01:59:67
  TRACK 95 AUDIO
    TITLE "9:cjc040_5882"
    INDEX 01 02:00:51
  TRACK 96 AUDIO
    TITLE "0:"
    INDEX 01 02:01:52
  TRACK 97 AUDIO
    TITLE "7:cjc040_5883"
    INDEX 01 02:03:34
  TRACK 98 AUDIO
    TITLE "0:"
    INDEX 01 02:04:49
  TRACK 99 AUDIO
    TITLE "8:cjc040_5884"
    INDEX 01 02:05:29
  TRACK 100 AUDIO
    TITLE "0:"
    INDEX 01 02:08:47
  TRACK 101 AUDIO
    TITLE "9:cjc040_5885"
    INDEX 01 02:09:22
  TRACK 102 AUDIO
    TITLE "0:"
    INDEX 01 02:10:42
  TRACK 103 AUDIO
    TITLE "7:cjc040_5886"
    INDEX 01 02:12:23
  TRACK 104 AUDIO
    TITLE "0:"
    INDEX 01 02:13:46
  TRACK 105 AUDIO
    TITLE "8:cjc040_5887"
    INDEX 01 02:14:24
  TRACK 106 AUDIO
    TITLE "0:"
    INDEX 01 02:15:47
  TRACK 107 AUDIO
    TITLE "9:cjc040_5888"
    INDEX 01 02:16:21
  TRACK 108 AUDIO
    TITLE "0:"
    INDEX 01 02:17:44
